<?xml version="1.0" encoding="utf-8"?>
<!-- Generator: Adobe Illustrator 17.0.0, SVG Export Plug-In . SVG Version: 6.00 Build 0)  -->
<!DOCTYPE svg PUBLIC "-//W3C//DTD SVG 1.1//EN" "http://www.w3.org/Graphics/SVG/1.1/DTD/svg11.dtd">
<svg version="1.1" id="Capa_1" xmlns="http://www.w3.org/2000/svg" xmlns:xlink="http://www.w3.org/1999/xlink" x="0px" y="0px"
	 width="1280px" height="720px" viewBox="0 0 1280 720" enable-background="new 0 0 1280 720" xml:space="preserve">
<line fill="none" stroke="#4F4F4F" stroke-width="12" stroke-miterlimit="10" x1="501.64" y1="97.104" x2="61.64" y2="97.104"/>
<text transform="matrix(1 0 0 1 589.5492 120.8736)" font-family="'ArialMT'" font-size="72">UNO</text>
<line fill="none" stroke="#4E4E4E" stroke-width="12" stroke-miterlimit="10" x1="479.398" y1="110.873" x2="479.493" y2="80.213"/>
<line fill="none" stroke="#4F4F4F" stroke-width="12" stroke-miterlimit="10" x1="506.5" y1="197.104" x2="61.64" y2="197.104"/>
<line fill="none" stroke="#4E4E4E" stroke-width="12" stroke-miterlimit="10" x1="499.366" y1="220.41" x2="479.445" y2="197.104"/>
<line fill="none" stroke="#4E4E4E" stroke-width="12" stroke-miterlimit="10" x1="503.522" y1="178.365" x2="479.289" y2="197.149"/>
<text transform="matrix(1 0 0 1 589.5492 230.8736)" font-family="'ArialMT'" font-size="72">MUCHO</text>
<line fill="none" stroke="#4F4F4F" stroke-width="12" stroke-miterlimit="10" x1="501.64" y1="317.104" x2="61.64" y2="317.104"/>
<text transform="matrix(1 0 0 1 589.5492 340.8736)" font-family="'ArialMT'" font-size="72">UNO ( y solo uno)</text>
<line fill="none" stroke="#4E4E4E" stroke-width="12" stroke-miterlimit="10" x1="479.398" y1="330.873" x2="479.493" y2="300.213"/>
<line fill="none" stroke="#4E4E4E" stroke-width="12" stroke-miterlimit="10" x1="455.398" y1="330.873" x2="455.493" y2="300.213"/>
<line fill="none" stroke="#4F4F4F" stroke-width="12" stroke-miterlimit="10" x1="501.64" y1="427.104" x2="61.64" y2="427.104"/>
<text transform="matrix(1 0 0 1 589.5492 450.8736)" font-family="'ArialMT'" font-size="72">CERO O UNO</text>
<line fill="none" stroke="#4E4E4E" stroke-width="12" stroke-miterlimit="10" x1="479.398" y1="440.873" x2="479.493" y2="410.213"/>
<circle fill="#FFFFFF" stroke="#4E4E4E" stroke-width="12" stroke-miterlimit="10" cx="443.601" cy="426.213" r="17.161"/>
<line fill="none" stroke="#4F4F4F" stroke-width="12" stroke-miterlimit="10" x1="506.5" y1="517.104" x2="61.64" y2="517.104"/>
<line fill="none" stroke="#4E4E4E" stroke-width="12" stroke-miterlimit="10" x1="499.366" y1="540.41" x2="479.445" y2="517.104"/>
<line fill="none" stroke="#4E4E4E" stroke-width="12" stroke-miterlimit="10" x1="503.522" y1="498.365" x2="479.289" y2="517.149"/>
<text transform="matrix(1 0 0 1 589.5492 550.8736)" font-family="'ArialMT'" font-size="72">UNO O MUCHO</text>
<line fill="none" stroke="#4E4E4E" stroke-width="12" stroke-miterlimit="10" x1="461.398" y1="530.873" x2="461.493" y2="500.213"/>
<line fill="none" stroke="#4F4F4F" stroke-width="12" stroke-miterlimit="10" x1="506.5" y1="617.104" x2="61.64" y2="617.104"/>
<line fill="none" stroke="#4E4E4E" stroke-width="12" stroke-miterlimit="10" x1="499.366" y1="640.41" x2="479.445" y2="617.104"/>
<line fill="none" stroke="#4E4E4E" stroke-width="12" stroke-miterlimit="10" x1="503.522" y1="598.365" x2="479.289" y2="617.149"/>
<text transform="matrix(1 0 0 1 589.5492 650.8736)" font-family="'ArialMT'" font-size="72">CERO O MUCHO</text>
<circle fill="#FFFFFF" stroke="#4E4E4E" stroke-width="12" stroke-miterlimit="10" cx="443.601" cy="616.213" r="17.161"/>
</svg>
